<?xml version="1.0" encoding="UTF-8"?>
<svg id="edit" xmlns="http://www.w3.org/2000/svg" viewBox="0 0 32 32">
  <defs>
    <style>
      .cls-1 {
        fill: #48c902;
      }
    </style>
  </defs>
  <path class="cls-1" d="m31.56,4.23l-2.86-2.8c-.3-.29-.68-.43-1.07-.43s-.78.14-1.07.43l-2.29,2.23,5.01,4.89,2.29-2.23c.59-.58.59-1.52,0-2.09Z"/>
  <polygon class="cls-1" points="9.4 18.18 14.4 23.06 28.19 9.6 23.19 4.71 9.4 18.18"/>
  <polygon class="cls-1" points="8.31 19.22 7.25 25.15 13.32 24.11 8.31 19.22"/>
  <path class="cls-1" d="m22.16,27.79H3.28V9.33h13.32l3.28-3.2H2.12C.95,6.13,0,7.06,0,8.2v20.73C0,30.07.95,31,2.12,31h21.19c1.17,0,2.12-.93,2.12-2.07v-14.82l-3.28,3.2v10.49Z"/>
</svg>